<?xml version="1.0" encoding="utf-8" standalone="no"?>
<!DOCTYPE svg PUBLIC "-//W3C//DTD SVG 1.1//EN"
  "http://www.w3.org/Graphics/SVG/1.1/DTD/svg11.dtd">
<svg xmlns:xlink="http://www.w3.org/1999/xlink" width="460.8pt" height="345.6pt" viewBox="0 0 460.8 345.6" xmlns="http://www.w3.org/2000/svg" version="1.1">
 <metadata>
  <rdf:RDF xmlns:dc="http://purl.org/dc/elements/1.1/" xmlns:cc="http://creativecommons.org/ns#" xmlns:rdf="http://www.w3.org/1999/02/22-rdf-syntax-ns#">
   <cc:Work>
    <dc:type rdf:resource="http://purl.org/dc/dcmitype/StillImage"/>
    <dc:date>2025-05-26T14:15:22.072265</dc:date>
    <dc:format>image/svg+xml</dc:format>
    <dc:creator>
     <cc:Agent>
      <dc:title>Matplotlib v3.8.4, https://matplotlib.org/</dc:title>
     </cc:Agent>
    </dc:creator>
   </cc:Work>
  </rdf:RDF>
 </metadata>
 <defs>
  <style type="text/css">*{stroke-linejoin: round; stroke-linecap: butt}</style>
 </defs>
 <g id="figure_1">
  <g id="patch_1">
   <path d="M 0 345.6 
L 460.8 345.6 
L 460.8 0 
L 0 0 
z
" style="fill: #ffffff"/>
  </g>
  <g id="axes_1">
   <g id="patch_2">
    <path d="M 57.6 307.584 
L 414.72 307.584 
L 414.72 41.472 
L 57.6 41.472 
z
" style="fill: #ffffff"/>
   </g>
   <g id="patch_3">
    <path d="M 73.832727 307.584 
L 127.941818 307.584 
L 127.941818 307.584 
L 73.832727 307.584 
z
" clip-path="url(#p26690816c7)" style="fill: #1f77b4"/>
   </g>
   <g id="patch_4">
    <path d="M 141.469091 307.584 
L 195.578182 307.584 
L 195.578182 258.415088 
L 141.469091 258.415088 
z
" clip-path="url(#p26690816c7)" style="fill: #1f77b4"/>
   </g>
   <g id="patch_5">
    <path d="M 209.105455 307.584 
L 263.214545 307.584 
L 263.214545 307.551152 
L 209.105455 307.551152 
z
" clip-path="url(#p26690816c7)" style="fill: #1f77b4"/>
   </g>
   <g id="patch_6">
    <path d="M 276.741818 307.584 
L 330.850909 307.584 
L 330.850909 295.308835 
L 276.741818 295.308835 
z
" clip-path="url(#p26690816c7)" style="fill: #1f77b4"/>
   </g>
   <g id="patch_7">
    <path d="M 344.378182 307.584 
L 398.487273 307.584 
L 398.487273 54.144 
L 344.378182 54.144 
z
" clip-path="url(#p26690816c7)" style="fill: #1f77b4"/>
   </g>
   <g id="matplotlib.axis_1">
    <g id="xtick_1">
     <g id="line2d_1">
      <defs>
       <path id="mad611b491e" d="M 0 0 
L 0 3.5 
" style="stroke: #000000; stroke-width: 0.8"/>
      </defs>
      <g>
       <use xlink:href="#mad611b491e" x="100.887273" y="307.584" style="stroke: #000000; stroke-width: 0.8"/>
      </g>
     </g>
     <g id="text_1">
      <!-- ε-贪心策略 -->
      <g transform="translate(73.387273 322.591812) scale(0.1 -0.1)">
       <defs>
        <path id="SimSun-3b5" d="M 2287 1487 
Q 2275 1875 2725 2175 
Q 2350 2375 2337 2675 
Q 2325 2975 2562 3162 
Q 2800 3350 3087 3375 
Q 3375 3400 3600 3287 
Q 3825 3175 3925 3050 
Q 4025 2925 4012 2825 
Q 4000 2725 3937 2662 
Q 3875 2600 3762 2625 
Q 3650 2650 3625 2762 
Q 3600 2875 3675 2925 
Q 3700 2950 3700 2975 
Q 3700 3025 3587 3112 
Q 3475 3200 3262 3212 
Q 3050 3225 2900 3075 
Q 2750 2925 2737 2700 
Q 2725 2475 2800 2337 
Q 2875 2200 3000 2250 
Q 3125 2300 3275 2287 
Q 3425 2275 3475 2237 
Q 3525 2200 3525 2150 
Q 3525 2100 3450 2050 
Q 3375 2000 3237 2000 
Q 3100 2000 3000 2050 
Q 2900 2075 2787 1925 
Q 2675 1775 2675 1537 
Q 2675 1300 2837 1137 
Q 3000 975 3275 987 
Q 3550 1000 3875 1300 
Q 4050 1450 4075 1450 
Q 4125 1450 4112 1475 
Q 4100 1500 4100 1425 
L 4000 1250 
Q 3875 1050 3662 887 
Q 3450 725 3137 700 
Q 2825 675 2562 887 
Q 2300 1100 2287 1487 
z
" transform="scale(0.015625)"/>
        <path id="SimSun-2d" d="M 200 2225 
L 200 2450 
L 2975 2450 
L 2975 2225 
L 200 2225 
z
" transform="scale(0.015625)"/>
        <path id="SimSun-8d2a" d="M 3425 5000 
L 3200 4850 
Q 4250 3575 6100 3575 
L 6100 3475 
Q 5725 3375 5675 3100 
Q 3925 3525 3100 4775 
Q 2175 3475 300 2850 
L 250 2925 
Q 1525 3525 2112 4150 
Q 2700 4775 2925 5300 
L 3425 5000 
z
M 2825 4200 
Q 3325 3950 3400 3775 
Q 3475 3600 3350 3487 
Q 3225 3375 3175 3375 
Q 3100 3375 3100 3475 
Q 3050 3650 2975 3812 
Q 2900 3975 2750 4150 
L 2825 4200 
z
M 1425 3275 
L 3975 3275 
L 4225 3500 
L 4625 3100 
Q 4400 3125 4112 2812 
Q 3825 2500 3625 2225 
L 3275 2325 
L 3975 3125 
L 2125 3125 
Q 1925 3125 1650 3050 
L 1425 3275 
z
M 4800 2025 
Q 4800 1200 4825 675 
L 4450 550 
L 4450 2075 
L 1800 2075 
L 1800 525 
L 1425 350 
Q 1450 925 1450 1400 
Q 1450 1875 1425 2425 
L 1825 2225 
L 4400 2225 
L 4575 2450 
L 4975 2175 
L 4800 2025 
z
M 2925 1825 
L 3525 1525 
L 3275 1375 
Q 3200 800 2975 425 
Q 2750 50 2237 -212 
Q 1725 -475 600 -650 
L 575 -575 
Q 1650 -275 2075 -25 
Q 2500 225 2700 625 
Q 2900 1025 2925 1825 
z
M 3400 325 
L 3425 400 
Q 4325 325 4962 150 
Q 5600 -25 5587 -312 
Q 5575 -600 5475 -600 
Q 5400 -600 5275 -500 
Q 4975 -250 4475 -25 
Q 3975 200 3400 325 
z
" transform="scale(0.015625)"/>
        <path id="SimSun-5fc3" d="M 2750 4875 
Q 3350 4525 3625 4275 
Q 3900 4025 3862 3762 
Q 3825 3500 3725 3412 
Q 3625 3325 3575 3325 
Q 3450 3325 3350 3675 
Q 3200 4125 2675 4800 
L 2750 4875 
z
M 2025 3800 
L 2650 3475 
L 2425 3275 
L 2425 725 
Q 2400 225 2775 200 
L 4200 200 
Q 4475 225 4537 625 
Q 4600 1025 4625 1675 
L 4750 1675 
Q 4750 1000 4812 687 
Q 4875 375 5150 275 
Q 4950 -125 4425 -125 
L 2575 -125 
Q 2000 -100 2050 625 
L 2050 2675 
Q 2050 3325 2025 3800 
z
M 1225 2900 
L 1350 2900 
Q 1350 2100 1300 1725 
Q 1250 1350 1087 1225 
Q 925 1100 775 1100 
Q 700 1100 587 1137 
Q 475 1175 475 1250 
Q 475 1375 700 1625 
Q 1025 2000 1225 2900 
z
M 4850 2925 
L 4925 2975 
Q 5675 2300 5825 2050 
Q 5975 1800 5925 1550 
Q 5875 1300 5775 1237 
Q 5675 1175 5625 1175 
Q 5500 1175 5450 1525 
Q 5375 1975 4850 2925 
z
" transform="scale(0.015625)"/>
        <path id="SimSun-7b56" d="M 1700 5225 
L 2150 4900 
L 2000 4800 
Q 1775 4525 1675 4400 
L 2775 4400 
L 3050 4675 
L 3450 4250 
L 2075 4250 
Q 2275 4125 2425 3962 
Q 2575 3800 2562 3650 
Q 2550 3500 2475 3450 
Q 2400 3400 2350 3400 
Q 2275 3400 2250 3550 
Q 2200 3775 2125 3937 
Q 2050 4100 1925 4250 
L 1600 4250 
Q 1375 4000 1137 3775 
Q 900 3550 525 3300 
L 475 3375 
Q 925 3800 1237 4300 
Q 1550 4800 1700 5225 
z
M 3975 5200 
L 4425 4875 
L 4275 4800 
Q 4075 4550 3950 4400 
L 5200 4400 
L 5500 4700 
L 5925 4250 
L 4325 4250 
Q 4600 4100 4750 3950 
Q 4900 3800 4850 3637 
Q 4800 3475 4687 3400 
Q 4575 3325 4550 3525 
Q 4500 3725 4425 3887 
Q 4350 4050 4200 4250 
L 3875 4250 
Q 3625 3975 3225 3675 
L 3175 3750 
Q 3475 4100 3687 4512 
Q 3900 4925 3975 5200 
z
M 3100 3075 
Q 3100 3425 3075 3650 
L 3600 3425 
L 3425 3250 
L 3425 3075 
L 5125 3075 
L 5525 3450 
L 6025 2925 
L 3425 2925 
L 3425 2375 
L 4750 2375 
L 5000 2625 
L 5325 2300 
L 5125 2150 
L 5125 1450 
Q 5125 1200 5050 1087 
Q 4975 975 4700 850 
Q 4550 1175 4050 1300 
L 4050 1400 
Q 4425 1350 4525 1350 
Q 4600 1325 4700 1337 
Q 4800 1350 4800 1525 
L 4800 2225 
L 3425 2225 
L 3425 1625 
Q 3900 1025 4375 700 
Q 4850 375 5237 250 
Q 5625 125 6125 75 
L 6125 0 
Q 5700 -100 5625 -350 
Q 5250 -225 4875 12 
Q 4500 250 4162 550 
Q 3825 850 3425 1425 
L 3425 100 
Q 3425 -175 3450 -450 
L 3075 -625 
Q 3100 75 3100 375 
L 3100 1275 
Q 2575 700 1825 237 
Q 1075 -225 325 -500 
L 300 -400 
Q 1175 25 1875 550 
Q 2575 1075 3100 1775 
L 3100 2225 
L 1700 2225 
L 1700 950 
L 1350 800 
Q 1375 1225 1375 1687 
Q 1375 2150 1350 2550 
L 1700 2375 
L 3100 2375 
L 3100 2925 
L 1300 2925 
Q 975 2925 700 2850 
L 475 3075 
L 3100 3075 
z
" transform="scale(0.015625)"/>
        <path id="SimSun-7565" d="M 850 4075 
L 850 2600 
L 1350 2600 
L 1350 4075 
L 850 4075 
z
M 1650 4075 
L 1650 2600 
L 2150 2600 
L 2150 4075 
L 1650 4075 
z
M 850 2450 
L 850 900 
L 1350 900 
L 1350 2450 
L 850 2450 
z
M 1650 2450 
L 1650 900 
L 2150 900 
L 2150 2450 
L 1650 2450 
z
M 525 175 
Q 550 1075 550 2337 
Q 550 3600 525 4450 
L 850 4225 
L 2125 4225 
L 2300 4450 
L 2650 4150 
L 2450 3975 
L 2450 1650 
Q 2450 975 2475 500 
L 2150 400 
L 2150 750 
L 850 750 
L 850 325 
L 525 175 
z
M 3850 4825 
L 3625 4350 
L 4950 4350 
L 5150 4575 
L 5550 4200 
L 5300 4075 
Q 4750 3225 4450 2875 
Q 5100 2225 6125 2050 
L 6125 1975 
Q 5750 1925 5700 1650 
Q 4825 2025 4275 2650 
Q 3700 2075 3150 1750 
L 3400 1525 
L 4975 1525 
L 5150 1750 
L 5525 1450 
L 5350 1300 
Q 5350 100 5375 -400 
L 5025 -525 
L 5025 -150 
L 3400 -150 
L 3400 -475 
L 3050 -600 
Q 3075 0 3075 1700 
L 2500 1450 
L 2475 1525 
Q 3450 2100 4100 2875 
Q 3700 3525 3550 4150 
Q 3225 3525 2750 3000 
L 2675 3050 
Q 2950 3450 3187 4075 
Q 3425 4700 3550 5225 
L 4075 4950 
L 3850 4825 
z
M 3400 1375 
L 3400 0 
L 5025 0 
L 5025 1375 
L 3400 1375 
z
M 3625 4200 
Q 3875 3550 4275 3100 
Q 4650 3600 4950 4200 
L 3625 4200 
z
" transform="scale(0.015625)"/>
       </defs>
       <use xlink:href="#SimSun-3b5"/>
       <use xlink:href="#SimSun-2d" x="100"/>
       <use xlink:href="#SimSun-8d2a" x="150"/>
       <use xlink:href="#SimSun-5fc3" x="250"/>
       <use xlink:href="#SimSun-7b56" x="350"/>
       <use xlink:href="#SimSun-7565" x="450"/>
      </g>
     </g>
    </g>
    <g id="xtick_2">
     <g id="line2d_2">
      <g>
       <use xlink:href="#mad611b491e" x="168.523636" y="307.584" style="stroke: #000000; stroke-width: 0.8"/>
      </g>
     </g>
     <g id="text_2">
      <!-- 无学习率的 -->
      <g transform="translate(143.523636 322.513687) scale(0.1 -0.1)">
       <defs>
        <path id="SimSun-65e0" d="M 2825 2900 
Q 2900 3825 2925 4575 
L 1575 4575 
Q 1250 4575 975 4500 
L 750 4725 
L 4775 4725 
L 5150 5100 
L 5675 4575 
L 3300 4575 
Q 3275 4025 3200 2900 
L 5000 2900 
L 5425 3325 
L 6000 2750 
L 3750 2750 
L 3750 250 
Q 3775 -75 4175 -50 
L 5200 -50 
Q 5500 -25 5550 237 
Q 5600 500 5625 1200 
L 5750 1200 
Q 5725 75 6125 75 
Q 5925 -400 5250 -350 
L 3925 -350 
Q 3400 -350 3400 75 
L 3400 2750 
L 3175 2750 
Q 3000 1500 2400 712 
Q 1800 -75 325 -625 
L 300 -525 
Q 1550 75 2087 837 
Q 2625 1600 2800 2750 
L 1150 2750 
Q 825 2750 550 2675 
L 325 2900 
L 2825 2900 
z
" transform="scale(0.015625)"/>
        <path id="SimSun-5b66" d="M 1375 5025 
Q 2175 4500 2225 4237 
Q 2275 3975 2150 3837 
Q 2025 3700 1975 3700 
Q 1875 3700 1800 3975 
Q 1700 4375 1300 4975 
L 1375 5025 
z
M 2700 5150 
Q 3425 4600 3450 4337 
Q 3475 4075 3350 3950 
Q 3225 3825 3175 3825 
Q 3050 3825 3000 4125 
Q 2925 4550 2625 5100 
L 2700 5150 
z
M 5050 2650 
L 4975 2700 
L 5375 3400 
L 1100 3400 
Q 1150 3075 1125 2862 
Q 1100 2650 937 2600 
Q 775 2550 725 2550 
Q 650 2550 587 2587 
Q 525 2625 525 2650 
Q 525 2750 650 2925 
Q 850 3200 950 3850 
L 1075 3850 
L 1100 3550 
L 3925 3550 
Q 4400 4475 4600 5200 
L 5175 4825 
L 4925 4725 
Q 4500 4150 4075 3550 
L 5350 3550 
L 5600 3850 
L 6050 3350 
Q 5625 3300 5050 2650 
z
M 2075 75 
Q 2700 -25 2900 -12 
Q 3100 0 3100 250 
L 3100 1225 
L 1200 1225 
Q 875 1225 600 1150 
L 375 1375 
L 3100 1375 
Q 3100 1600 3075 1950 
L 3350 1800 
L 4225 2525 
L 2150 2525 
Q 1825 2525 1550 2450 
L 1325 2675 
L 4200 2675 
L 4475 2925 
L 4900 2425 
Q 4700 2450 4362 2275 
Q 4025 2100 3425 1725 
L 3625 1600 
L 3450 1500 
L 3450 1375 
L 5075 1375 
L 5475 1775 
L 6025 1225 
L 3450 1225 
L 3450 0 
Q 3450 -375 2875 -600 
Q 2900 -325 2075 -50 
L 2075 75 
z
" transform="scale(0.015625)"/>
        <path id="SimSun-4e60" d="M 3400 350 
Q 4175 200 4487 212 
Q 4800 225 4800 625 
L 4900 4375 
L 1700 4375 
Q 1375 4375 1100 4300 
L 875 4525 
L 4850 4525 
L 5075 4800 
L 5500 4475 
L 5275 4300 
L 5175 525 
Q 5175 -225 4425 -450 
Q 4450 -100 3375 225 
L 3400 350 
z
M 675 900 
Q 1350 1000 4400 2325 
L 4450 2225 
Q 1275 675 1125 325 
L 675 900 
z
M 1975 3825 
Q 2925 3425 3075 3262 
Q 3225 3100 3225 2950 
Q 3225 2800 3150 2662 
Q 3075 2525 3025 2525 
Q 2925 2525 2800 2775 
Q 2575 3175 1925 3750 
L 1975 3825 
z
" transform="scale(0.015625)"/>
        <path id="SimSun-7387" d="M 875 3725 
L 925 3800 
Q 1375 3650 1550 3525 
Q 1725 3400 1725 3250 
Q 1725 3175 1662 3025 
Q 1600 2875 1550 2875 
Q 1500 2875 1425 3050 
Q 1275 3325 875 3725 
z
M 550 1850 
Q 875 1925 2000 2575 
L 2050 2500 
Q 1675 2225 1337 1937 
Q 1000 1650 875 1425 
L 550 1850 
z
M 5200 3450 
Q 4800 3150 4275 2800 
L 4225 2875 
Q 4775 3400 5050 3925 
L 5450 3525 
L 5200 3450 
z
M 4325 2500 
L 4350 2575 
Q 5225 2350 5375 2212 
Q 5525 2075 5525 1900 
Q 5525 1775 5487 1662 
Q 5450 1550 5400 1550 
Q 5325 1550 5200 1800 
Q 4975 2150 4325 2500 
z
M 3150 3900 
Q 2500 3300 2300 3150 
Q 2800 3150 3400 3175 
Q 3700 3500 3850 3825 
L 4250 3450 
Q 4050 3400 3450 2825 
Q 2850 2250 2475 1950 
Q 3150 1975 3850 2000 
Q 3750 2175 3550 2450 
L 3600 2500 
Q 4050 2250 4200 2100 
Q 4350 1950 4350 1850 
Q 4350 1775 4250 1625 
Q 4150 1475 4100 1475 
Q 4075 1475 4050 1550 
Q 4000 1700 3900 1900 
Q 3650 1875 3075 1800 
L 3500 1550 
L 3325 1425 
L 3325 975 
L 5325 975 
L 5650 1300 
L 6100 825 
L 3325 825 
Q 3325 -275 3350 -525 
L 2975 -650 
Q 3000 0 3000 825 
L 1125 825 
Q 800 825 525 750 
L 300 975 
L 3000 975 
L 3000 1775 
Q 2450 1700 2200 1525 
L 1950 1950 
Q 2275 1950 2675 2350 
Q 3075 2750 3325 3050 
Q 2400 2950 2150 2775 
L 1950 3175 
Q 2150 3150 2475 3575 
Q 2800 4000 2900 4225 
L 1450 4225 
Q 1125 4225 850 4150 
L 625 4375 
L 3100 4375 
Q 3050 4800 2675 5200 
L 2725 5250 
Q 3225 5050 3337 4912 
Q 3450 4775 3450 4700 
Q 3450 4550 3250 4375 
L 5025 4375 
L 5350 4675 
L 5775 4225 
L 3050 4225 
L 3375 3950 
L 3150 3900 
z
" transform="scale(0.015625)"/>
        <path id="SimSun-7684" d="M 1125 3775 
L 1125 2175 
L 2425 2175 
L 2425 3775 
L 1125 3775 
z
M 1125 2025 
L 1125 275 
L 2425 275 
L 2425 2025 
L 1125 2025 
z
M 2750 3625 
Q 2750 700 2775 -200 
L 2425 -400 
L 2425 125 
L 1125 125 
L 1125 -300 
L 775 -500 
Q 800 675 800 1837 
Q 800 3000 775 4150 
L 1150 3925 
L 1400 3925 
Q 1650 4775 1675 5225 
L 2225 4925 
Q 1975 4800 1550 3925 
L 2375 3925 
L 2625 4175 
L 3000 3800 
L 2750 3625 
z
M 3975 5200 
L 4525 4875 
Q 4325 4750 3900 3850 
L 5250 3850 
L 5525 4125 
L 5900 3750 
L 5675 3575 
Q 5625 650 5537 262 
Q 5450 -125 5287 -275 
Q 5125 -425 4775 -550 
Q 4650 -150 3950 50 
L 3950 175 
Q 4575 50 4850 50 
Q 5125 50 5187 475 
Q 5250 900 5300 3700 
L 3850 3700 
Q 3400 2975 2900 2475 
L 2825 2525 
Q 3350 3325 3600 3950 
Q 3850 4575 3975 5200 
z
M 3525 2750 
Q 4125 2300 4225 2087 
Q 4325 1875 4325 1775 
Q 4325 1600 4225 1475 
Q 4125 1350 4075 1350 
Q 3975 1350 3925 1700 
Q 3825 2200 3475 2675 
L 3525 2750 
z
" transform="scale(0.015625)"/>
       </defs>
       <use xlink:href="#SimSun-65e0"/>
       <use xlink:href="#SimSun-5b66" x="100"/>
       <use xlink:href="#SimSun-4e60" x="200"/>
       <use xlink:href="#SimSun-7387" x="300"/>
       <use xlink:href="#SimSun-7684" x="400"/>
      </g>
      <!-- Q-学习算法 -->
      <g transform="translate(143.523636 333.36525) scale(0.1 -0.1)">
       <defs>
        <path id="SimSun-51" d="M 1850 275 
Q 1775 650 1675 887 
Q 1575 1125 1375 1125 
Q 1275 1125 1137 1025 
Q 1000 925 1000 700 
Q 1000 525 1175 387 
Q 1350 250 1600 250 
Q 1700 250 1762 250 
Q 1825 250 1850 275 
z
M 1425 1375 
Q 1725 1375 1887 1162 
Q 2050 950 2175 525 
Q 2350 650 2437 1087 
Q 2525 1525 2525 2250 
Q 2525 3225 2312 3737 
Q 2100 4250 1600 4250 
Q 1175 4250 925 3750 
Q 675 3250 675 2250 
Q 675 1750 712 1412 
Q 750 1075 825 925 
Q 925 1150 1050 1262 
Q 1175 1375 1425 1375 
z
M 1600 75 
Q 1050 75 625 575 
Q 200 1075 200 2250 
Q 200 3250 575 3837 
Q 950 4425 1600 4425 
Q 2200 4425 2600 3862 
Q 3000 3300 3000 2250 
Q 3000 1375 2787 925 
Q 2575 475 2275 250 
Q 2325 75 2400 0 
Q 2475 -75 2550 -75 
Q 2650 -75 2725 -25 
Q 2800 25 2825 150 
L 2925 100 
Q 2850 -200 2725 -337 
Q 2600 -475 2425 -475 
Q 2300 -475 2187 -400 
Q 2075 -325 1900 100 
Q 1875 75 1800 75 
Q 1725 75 1600 75 
z
" transform="scale(0.015625)"/>
        <path id="SimSun-7b97" d="M 2675 1525 
Q 2650 1125 2600 750 
L 3825 750 
L 3825 1525 
L 2675 1525 
z
M 4900 2075 
Q 4900 1875 4925 1425 
L 4550 1275 
L 4550 1525 
L 4175 1525 
L 4175 775 
L 5300 775 
L 5650 1100 
L 6100 625 
L 4175 625 
Q 4175 -225 4200 -475 
L 3800 -650 
Q 3825 100 3825 600 
L 2575 600 
Q 2400 50 1837 -250 
Q 1275 -550 625 -650 
L 600 -575 
Q 1325 -325 1687 -62 
Q 2050 200 2200 600 
L 1125 600 
Q 800 600 525 525 
L 300 750 
L 2225 750 
Q 2275 1100 2300 1525 
L 1850 1525 
L 1850 1325 
L 1500 1200 
Q 1525 1975 1512 2787 
Q 1500 3600 1475 3775 
L 1850 3575 
L 4525 3575 
L 4675 3800 
L 5075 3525 
L 4900 3375 
L 4900 2075 
z
M 1850 3425 
L 1850 2975 
L 4550 2975 
L 4550 3425 
L 1850 3425 
z
M 1850 2825 
L 1850 2350 
L 4550 2350 
L 4550 2825 
L 1850 2825 
z
M 1850 2200 
L 1850 1675 
L 4550 1675 
L 4550 2200 
L 1850 2200 
z
M 1575 5275 
L 2075 5000 
Q 1925 4925 1837 4825 
Q 1750 4725 1600 4500 
L 2700 4500 
L 3000 4800 
L 3400 4350 
L 2125 4350 
Q 2650 4075 2587 3887 
Q 2525 3700 2462 3662 
Q 2400 3625 2350 3625 
Q 2275 3625 2250 3712 
Q 2225 3800 2200 3975 
Q 2150 4125 1950 4350 
L 1525 4350 
Q 1275 3975 1050 3725 
Q 825 3475 475 3225 
L 425 3300 
Q 650 3525 950 3950 
Q 1250 4375 1575 5275 
z
M 4000 5250 
L 4450 4950 
Q 4325 4925 4200 4775 
Q 4075 4625 3975 4475 
L 5325 4475 
L 5625 4750 
L 6000 4325 
L 4675 4325 
Q 5300 4125 5300 3937 
Q 5300 3750 5212 3675 
Q 5125 3600 5100 3600 
Q 5050 3600 4987 3712 
Q 4925 3825 4850 3962 
Q 4775 4100 4500 4325 
L 3900 4325 
Q 3725 4150 3575 3975 
Q 3400 3775 3225 3625 
L 3150 3675 
Q 3450 4050 3712 4562 
Q 3975 5075 4000 5250 
z
" transform="scale(0.015625)"/>
        <path id="SimSun-6cd5" d="M 3800 3850 
Q 3800 4925 3775 5275 
L 4375 4975 
L 4125 4725 
L 4125 3850 
L 5100 3850 
L 5375 4125 
L 5775 3700 
L 4125 3700 
L 4125 2350 
L 5450 2350 
L 5750 2650 
L 6175 2200 
L 3825 2200 
L 4225 1925 
Q 4000 1825 3750 1450 
Q 3500 1075 2600 125 
L 5225 300 
Q 4900 750 4525 1175 
L 4575 1250 
Q 5025 925 5287 725 
Q 5550 525 5712 337 
Q 5875 150 5875 0 
Q 5875 -150 5775 -300 
Q 5675 -450 5650 -450 
Q 5575 -450 5525 -300 
Q 5425 -50 5300 175 
Q 3900 25 3175 -150 
Q 2450 -325 2350 -450 
L 2100 125 
Q 2425 125 2962 875 
Q 3500 1625 3700 2200 
L 2775 2200 
Q 2450 2200 2175 2125 
L 1950 2350 
L 3800 2350 
L 3800 3700 
L 3250 3700 
Q 2925 3700 2650 3625 
L 2425 3850 
L 3800 3850 
z
M 2375 4150 
Q 1400 1500 1312 1187 
Q 1225 875 1237 425 
Q 1250 -25 1275 -200 
Q 1275 -300 1150 -300 
Q 1050 -300 900 -250 
Q 750 -200 750 -25 
Q 750 100 825 350 
Q 900 600 900 750 
Q 900 925 787 1025 
Q 675 1125 300 1225 
L 300 1325 
Q 750 1275 862 1287 
Q 975 1300 1112 1512 
Q 1250 1725 2275 4175 
L 2375 4150 
z
M 325 3600 
Q 1200 3150 1200 2862 
Q 1200 2575 1062 2475 
Q 925 2375 825 2725 
Q 700 3050 275 3525 
L 325 3600 
z
M 900 5050 
Q 1600 4700 1662 4525 
Q 1725 4350 1725 4275 
Q 1725 4150 1637 4050 
Q 1550 3950 1500 3950 
Q 1425 3950 1350 4200 
Q 1225 4525 850 4975 
L 900 5050 
z
" transform="scale(0.015625)"/>
       </defs>
       <use xlink:href="#SimSun-51"/>
       <use xlink:href="#SimSun-2d" x="50"/>
       <use xlink:href="#SimSun-5b66" x="100"/>
       <use xlink:href="#SimSun-4e60" x="200"/>
       <use xlink:href="#SimSun-7b97" x="300"/>
       <use xlink:href="#SimSun-6cd5" x="400"/>
      </g>
     </g>
    </g>
    <g id="xtick_3">
     <g id="line2d_3">
      <g>
       <use xlink:href="#mad611b491e" x="236.16" y="307.584" style="stroke: #000000; stroke-width: 0.8"/>
      </g>
     </g>
     <g id="text_3">
      <!-- 连续松弛技术 -->
      <g transform="translate(206.16 322.55275) scale(0.1 -0.1)">
       <defs>
        <path id="SimSun-8fde" d="M 2475 2800 
Q 2825 3300 3175 4050 
L 2675 4050 
Q 2425 4050 2150 3975 
L 1925 4200 
L 3225 4200 
Q 3475 4750 3625 5275 
L 4150 4925 
L 3900 4800 
L 3600 4200 
L 5050 4200 
L 5425 4550 
L 5875 4050 
L 3550 4050 
L 2825 2675 
L 3800 2675 
Q 3800 3125 3775 3650 
L 4400 3425 
L 4125 3225 
L 4125 2675 
L 4800 2675 
L 5125 3000 
L 5575 2525 
L 4125 2525 
L 4125 1575 
L 5250 1575 
L 5625 1925 
L 6075 1425 
L 4125 1425 
Q 4125 825 4150 300 
L 3775 150 
Q 3800 775 3800 1425 
L 2625 1425 
Q 2400 1425 2125 1350 
L 1900 1575 
L 3800 1575 
L 3800 2525 
L 2825 2525 
L 2575 2300 
L 2225 2700 
L 2475 2800 
z
M 725 4950 
L 800 5000 
Q 1250 4725 1412 4537 
Q 1575 4350 1562 4200 
Q 1550 4050 1437 3950 
Q 1325 3850 1300 3850 
Q 1200 3850 1150 4150 
Q 1050 4525 725 4950 
z
M 1625 800 
Q 1825 575 2225 350 
Q 2625 125 3400 75 
Q 4175 25 4850 50 
Q 5525 75 6150 150 
L 6150 50 
Q 5675 -75 5625 -375 
Q 4500 -375 3775 -337 
Q 3050 -300 2575 -112 
Q 2100 75 1825 375 
Q 1550 650 1437 650 
Q 1325 650 1050 325 
Q 775 0 725 -175 
L 325 175 
Q 575 375 1275 825 
L 1275 2875 
L 1100 2875 
Q 775 2875 500 2800 
L 275 3025 
L 1225 3025 
L 1425 3275 
L 1825 2950 
L 1625 2775 
L 1625 800 
z
" transform="scale(0.015625)"/>
        <path id="SimSun-7eed" d="M 5125 2675 
L 5450 3275 
L 3225 3275 
Q 2900 3275 2625 3200 
L 2400 3425 
L 3875 3425 
L 3875 4125 
L 3475 4125 
Q 3150 4125 2875 4050 
L 2650 4275 
L 3875 4275 
L 3875 4725 
Q 3875 4950 3850 5225 
L 4400 4975 
L 4200 4800 
L 4200 4275 
L 4950 4275 
L 5250 4575 
L 5675 4125 
L 4200 4125 
L 4200 3425 
L 5400 3425 
L 5600 3675 
L 6075 3200 
Q 5700 3200 5200 2625 
L 5125 2675 
z
M 2900 2975 
Q 3475 2850 3562 2750 
Q 3650 2650 3650 2525 
Q 3650 2400 3625 2312 
Q 3600 2225 3575 2225 
Q 3500 2225 3400 2400 
Q 3200 2650 2850 2900 
L 2900 2975 
z
M 2525 2325 
Q 3225 2125 3275 2012 
Q 3325 1900 3325 1775 
Q 3325 1675 3287 1587 
Q 3250 1500 3200 1500 
Q 3150 1500 3050 1650 
Q 2900 1900 2475 2250 
L 2525 2325 
z
M 3950 1350 
Q 4025 2275 3975 3150 
L 4500 2900 
Q 4350 2750 4350 2400 
Q 4325 2025 4275 1350 
L 5300 1350 
L 5625 1700 
L 6075 1200 
L 4275 1200 
Q 4225 950 4150 700 
Q 5350 300 5525 137 
Q 5700 -25 5700 -250 
Q 5700 -325 5675 -437 
Q 5650 -550 5600 -550 
Q 5525 -550 5325 -300 
Q 5025 75 4100 600 
Q 3850 150 3375 -137 
Q 2900 -425 1925 -625 
L 1900 -525 
Q 2900 -200 3362 187 
Q 3825 575 3925 1200 
L 3000 1200 
Q 2675 1200 2400 1125 
L 2175 1350 
L 3950 1350 
z
M 1350 5100 
L 1850 4825 
Q 1600 4650 1350 4175 
Q 1100 3675 700 3025 
L 1700 3100 
Q 1925 3500 2075 4025 
L 2525 3725 
Q 2300 3550 1975 3025 
Q 1650 2475 975 1575 
Q 1500 1650 2400 1800 
L 2425 1700 
Q 1900 1575 1437 1437 
Q 975 1300 750 1100 
L 475 1550 
Q 675 1600 925 1900 
Q 1175 2200 1650 2975 
Q 1150 2875 950 2800 
Q 750 2725 575 2600 
L 325 3050 
Q 550 3050 900 3825 
Q 1250 4600 1350 5100 
z
M 350 250 
Q 850 325 1325 425 
Q 1800 525 2450 675 
L 2475 575 
Q 1850 375 1312 175 
Q 775 -25 625 -175 
L 350 250 
z
" transform="scale(0.015625)"/>
        <path id="SimSun-677e" d="M 3400 4525 
L 3950 4225 
L 3725 4100 
Q 3150 2725 2575 2125 
L 2500 2175 
Q 3150 3250 3400 4525 
z
M 4275 5200 
L 4725 4975 
L 4475 4850 
Q 4950 2900 6050 2500 
L 6050 2425 
Q 5625 2400 5500 2175 
Q 4525 3050 4275 5200 
z
M 4475 1325 
Q 5050 775 5275 450 
Q 5500 125 5500 -75 
Q 5500 -200 5387 -350 
Q 5275 -500 5225 -500 
Q 5175 -500 5150 -400 
Q 5075 -175 5000 25 
Q 3600 -125 3325 -212 
Q 3050 -300 2875 -425 
L 2600 75 
Q 2825 100 3012 437 
Q 3200 775 3487 1475 
Q 3775 2175 3875 2650 
L 4425 2275 
L 4175 2150 
Q 3700 1275 3075 100 
L 4950 150 
Q 4775 675 4400 1275 
L 4475 1325 
z
M 1650 2775 
Q 1650 -25 1675 -500 
L 1275 -650 
Q 1300 475 1300 2425 
Q 900 1375 350 775 
L 275 825 
Q 1000 2050 1250 3575 
L 725 3575 
L 500 3525 
L 300 3725 
L 1300 3725 
Q 1300 4700 1275 5225 
L 1875 4950 
L 1650 4775 
L 1650 3725 
L 2000 3725 
L 2275 4000 
L 2700 3575 
L 1650 3575 
L 1650 2925 
Q 2175 2650 2325 2475 
Q 2475 2300 2475 2200 
Q 2475 2100 2400 1962 
Q 2325 1825 2275 1825 
Q 2175 1825 2100 2075 
Q 1950 2450 1650 2775 
z
" transform="scale(0.015625)"/>
        <path id="SimSun-5f1b" d="M 1125 3100 
L 975 2000 
L 1800 2000 
L 2025 2225 
L 2350 1900 
L 2175 1750 
Q 2075 750 1987 337 
Q 1900 -75 1750 -250 
Q 1600 -425 1225 -550 
Q 1125 -200 550 25 
L 575 125 
Q 1100 0 1325 0 
Q 1425 0 1512 37 
Q 1600 75 1687 587 
Q 1775 1100 1825 1850 
L 950 1850 
L 750 1675 
L 450 1975 
L 650 2100 
Q 800 3050 800 3475 
L 1125 3250 
L 1900 3250 
L 1900 4450 
L 875 4450 
L 575 4400 
L 375 4600 
L 1875 4600 
L 2075 4825 
L 2400 4525 
L 2225 4375 
Q 2225 3325 2250 3000 
L 1900 2850 
L 1900 3100 
L 1125 3100 
z
M 3925 3000 
L 3150 2775 
L 3150 250 
Q 3125 -100 3500 -75 
L 5225 -75 
Q 5525 -100 5587 150 
Q 5650 400 5650 1225 
L 5775 1225 
Q 5800 175 6150 0 
Q 5950 -375 5425 -375 
L 3300 -375 
Q 2800 -400 2825 175 
L 2825 2675 
L 2500 2575 
L 2275 2450 
L 2025 2600 
L 2825 2850 
Q 2825 3900 2800 4250 
L 3375 3975 
L 3150 3800 
L 3150 2950 
L 3925 3175 
Q 3925 4675 3900 5125 
L 4475 4850 
L 4250 4700 
L 4250 3275 
L 5075 3550 
L 5250 3825 
L 5675 3525 
L 5500 3400 
Q 5500 2025 5437 1575 
Q 5375 1125 4875 1000 
Q 4875 1250 4325 1475 
L 4325 1575 
Q 4775 1475 4925 1512 
Q 5075 1550 5100 1712 
Q 5125 1875 5150 3400 
L 4250 3100 
Q 4250 1125 4275 725 
L 3900 550 
Q 3925 1175 3925 3000 
z
" transform="scale(0.015625)"/>
        <path id="SimSun-6280" d="M 5625 2475 
L 5400 2350 
Q 4975 1175 4400 600 
Q 4750 300 5212 100 
Q 5675 -100 6125 -125 
L 6125 -225 
Q 5725 -325 5675 -550 
Q 4800 -250 4175 400 
Q 3250 -300 1975 -600 
L 1925 -500 
Q 3100 -125 3975 650 
Q 3475 1350 3200 2450 
L 2975 2400 
L 2775 2600 
L 4025 2600 
L 4025 3650 
L 3275 3650 
L 3000 3600 
L 2800 3800 
L 4025 3800 
Q 4025 4700 4000 5225 
L 4625 4950 
L 4375 4750 
L 4375 3800 
L 5275 3800 
L 5575 4100 
L 6025 3650 
L 4375 3650 
L 4375 2600 
L 5025 2600 
L 5250 2825 
L 5625 2475 
z
M 3350 2450 
Q 3675 1450 4175 850 
Q 4775 1525 5050 2450 
L 3350 2450 
z
M 300 1975 
Q 475 1975 1450 2350 
L 1450 3650 
L 775 3650 
L 475 3600 
L 275 3800 
L 1450 3800 
Q 1450 4575 1425 5250 
L 2025 4950 
L 1800 4800 
L 1800 3800 
L 2125 3800 
L 2400 4075 
L 2825 3650 
L 1800 3650 
L 1800 2450 
L 2700 2800 
L 2750 2700 
L 1800 2200 
L 1800 -25 
Q 1775 -425 1250 -600 
Q 1300 -325 500 -25 
L 500 75 
Q 1125 -25 1287 -12 
Q 1450 0 1450 225 
L 1450 2050 
Q 725 1700 600 1525 
L 300 1975 
z
" transform="scale(0.015625)"/>
        <path id="SimSun-672f" d="M 3975 4800 
L 4025 4875 
Q 4675 4650 4887 4512 
Q 5100 4375 5100 4175 
Q 5100 4075 5025 3912 
Q 4950 3750 4900 3750 
Q 4825 3750 4725 3975 
Q 4525 4325 3975 4800 
z
M 3000 3500 
Q 3000 4225 2975 5225 
L 3650 4925 
L 3375 4750 
L 3375 3500 
L 5100 3500 
L 5475 3875 
L 6000 3350 
L 3600 3350 
Q 4300 1250 6100 675 
L 6100 575 
Q 5600 525 5500 250 
Q 3875 1400 3475 3350 
L 3375 3350 
Q 3375 0 3400 -450 
L 2975 -650 
Q 3000 650 3000 2900 
Q 1975 975 350 25 
L 300 100 
Q 1825 1250 2775 3350 
L 1200 3350 
Q 875 3350 600 3275 
L 375 3500 
L 3000 3500 
z
" transform="scale(0.015625)"/>
       </defs>
       <use xlink:href="#SimSun-8fde"/>
       <use xlink:href="#SimSun-7eed" x="100"/>
       <use xlink:href="#SimSun-677e" x="200"/>
       <use xlink:href="#SimSun-5f1b" x="300"/>
       <use xlink:href="#SimSun-6280" x="400"/>
       <use xlink:href="#SimSun-672f" x="500"/>
      </g>
      <!-- （投影校正） -->
      <g transform="translate(206.16 333.263687) scale(0.1 -0.1)">
       <defs>
        <path id="SimSun-ff08" d="M 5087 200 
Q 5475 -100 5425 -150 
Q 5375 -200 4950 87 
Q 4525 375 4137 850 
Q 3750 1325 3687 2100 
Q 3625 2875 4000 3487 
Q 4375 4100 4887 4462 
Q 5400 4825 5412 4762 
Q 5425 4700 5075 4425 
Q 4725 4125 4387 3600 
Q 4050 3075 4050 2250 
Q 4050 1425 4375 962 
Q 4700 500 5087 200 
z
" transform="scale(0.015625)"/>
        <path id="SimSun-6295" d="M 5550 3125 
Q 5675 3125 5825 3225 
Q 5950 3300 6037 3137 
Q 6125 2975 6125 2925 
Q 6125 2875 6025 2862 
Q 5925 2850 5650 2850 
L 5000 2850 
Q 4575 2850 4625 3400 
L 4625 4625 
L 3550 4625 
Q 3625 2925 2325 2225 
L 2275 2300 
Q 2825 2775 2987 3225 
Q 3150 3675 3175 4125 
Q 3200 4575 3175 5000 
L 3550 4775 
L 4600 4775 
L 4800 5000 
L 5175 4700 
L 4975 4550 
L 4975 3450 
Q 4950 3125 5175 3125 
L 5550 3125 
z
M 2800 2475 
L 4775 2475 
L 5000 2725 
L 5425 2350 
L 5200 2225 
Q 4850 1275 4350 650 
Q 4725 325 5162 125 
Q 5600 -75 6100 -125 
L 6100 -225 
Q 5675 -275 5600 -550 
Q 4800 -225 4100 450 
Q 3225 -250 1925 -625 
L 1875 -525 
Q 2950 -150 3900 675 
Q 3425 1475 3175 2325 
L 3000 2275 
L 2800 2475 
z
M 3300 2325 
Q 3600 1525 4125 900 
Q 4600 1550 4825 2325 
L 3300 2325 
z
M 325 1950 
Q 550 1975 1400 2350 
L 1400 3625 
L 825 3625 
L 525 3575 
L 325 3775 
L 1400 3775 
Q 1400 4600 1375 5225 
L 1975 4950 
L 1750 4775 
L 1750 3775 
L 2025 3775 
L 2325 4075 
L 2775 3625 
L 1750 3625 
L 1750 2475 
L 2575 2850 
L 2625 2750 
L 1750 2250 
L 1750 100 
Q 1750 -350 1225 -550 
Q 1200 -225 525 -25 
L 525 75 
Q 1150 -25 1275 -12 
Q 1400 0 1400 300 
L 1400 2075 
Q 1100 1900 725 1650 
L 600 1500 
L 325 1950 
z
" transform="scale(0.015625)"/>
        <path id="SimSun-5f71" d="M 3325 4625 
Q 3325 3700 3350 3325 
L 3000 3175 
L 3000 3400 
L 1825 3400 
Q 2200 3225 2250 3087 
Q 2300 2950 2175 2825 
L 3125 2825 
L 3425 3125 
L 3875 2675 
L 1100 2675 
Q 775 2675 500 2600 
L 275 2825 
L 1950 2825 
Q 1975 3025 1700 3400 
L 1100 3400 
L 1100 3275 
L 750 3125 
Q 775 3625 775 4150 
Q 775 4675 750 5050 
L 1100 4850 
L 2975 4850 
L 3150 5075 
L 3525 4775 
L 3325 4625 
z
M 1100 4700 
L 1100 4175 
L 3000 4175 
L 3000 4700 
L 1100 4700 
z
M 1100 4025 
L 1100 3550 
L 3000 3550 
L 3000 4025 
L 1100 4025 
z
M 1200 25 
Q 1550 -25 1725 -37 
Q 1900 -50 1900 200 
L 1900 1275 
L 1150 1275 
L 1150 1150 
L 800 1025 
Q 825 1500 825 1837 
Q 825 2175 800 2500 
L 1150 2325 
L 2925 2325 
L 3075 2550 
L 3450 2275 
L 3275 2125 
Q 3275 1600 3300 1150 
L 2950 1025 
L 2950 1275 
L 2225 1275 
L 2225 100 
Q 2250 -400 1775 -525 
Q 1750 -225 1200 -75 
L 1200 25 
z
M 1225 1000 
L 1650 675 
Q 1425 575 1050 200 
Q 675 -200 300 -450 
L 250 -375 
Q 475 -175 787 237 
Q 1100 650 1225 1000 
z
M 2525 900 
Q 3250 625 3337 500 
Q 3425 375 3425 250 
Q 3425 150 3387 25 
Q 3350 -100 3275 -100 
Q 3200 -100 3125 75 
Q 3050 225 2900 400 
Q 2750 575 2475 825 
L 2525 900 
z
M 1150 2175 
L 1150 1425 
L 2950 1425 
L 2950 2175 
L 1150 2175 
z
M 5175 5050 
L 5650 4650 
Q 5400 4600 4900 4075 
Q 4375 3550 3825 3175 
L 3775 3250 
Q 4175 3625 4575 4125 
Q 4975 4625 5175 5050 
z
M 5475 3350 
L 5925 2950 
Q 5725 2925 5050 2300 
Q 4375 1675 3750 1400 
L 3700 1475 
Q 4350 1925 4812 2450 
Q 5275 2975 5475 3350 
z
M 5725 1725 
L 6125 1300 
Q 5875 1250 5350 775 
Q 4800 275 4175 -75 
Q 3550 -425 2975 -575 
L 2950 -500 
Q 3750 -175 4525 462 
Q 5300 1100 5725 1725 
z
" transform="scale(0.015625)"/>
        <path id="SimSun-6821" d="M 3500 5175 
L 3575 5225 
Q 4100 4950 4237 4787 
Q 4375 4625 4375 4500 
Q 4375 4375 4262 4225 
Q 4150 4075 4100 4075 
Q 4025 4075 3975 4325 
Q 3875 4675 3500 5175 
z
M 2450 4050 
L 5250 4050 
L 5575 4375 
L 6050 3900 
L 3275 3900 
Q 2875 3900 2675 3825 
L 2450 4050 
z
M 3450 3700 
L 3950 3350 
Q 3700 3275 3300 2800 
Q 2875 2325 2375 2000 
L 2325 2075 
Q 2650 2375 2962 2837 
Q 3275 3300 3450 3700 
z
M 4500 3575 
Q 5625 3075 5712 2887 
Q 5800 2700 5800 2600 
Q 5800 2475 5737 2337 
Q 5675 2200 5650 2200 
Q 5550 2200 5400 2475 
Q 5150 2900 4450 3500 
L 4500 3575 
z
M 4725 2550 
L 5275 2175 
Q 5075 2125 4825 1600 
Q 4575 1075 4225 625 
Q 5125 -100 6150 -125 
L 6150 -225 
Q 5725 -325 5700 -575 
Q 4625 -250 4025 400 
Q 3100 -350 1925 -600 
L 1875 -525 
Q 3150 -75 3825 625 
Q 3475 1150 3100 2325 
L 3200 2350 
Q 3600 1325 4000 850 
Q 4475 1525 4725 2550 
z
M 1675 725 
Q 1675 375 1700 -450 
L 1300 -625 
Q 1325 800 1325 2375 
Q 975 1525 350 750 
L 275 825 
Q 975 1950 1325 3525 
L 725 3525 
L 475 3475 
L 275 3675 
L 1325 3675 
Q 1325 4350 1300 5200 
L 1900 4900 
L 1675 4750 
L 1675 3675 
L 2000 3675 
L 2275 3950 
L 2700 3525 
L 1675 3525 
L 1675 3100 
Q 2150 2925 2287 2787 
Q 2425 2650 2425 2500 
Q 2425 2400 2362 2262 
Q 2300 2125 2275 2125 
Q 2200 2125 2100 2350 
Q 1950 2675 1675 2950 
L 1675 725 
z
" transform="scale(0.015625)"/>
        <path id="SimSun-6b63" d="M 1600 2725 
Q 1600 2900 1575 3325 
L 2200 3025 
L 1950 2850 
L 1950 25 
L 3200 25 
L 3200 4500 
L 1675 4500 
Q 1350 4500 1075 4425 
L 850 4650 
L 5075 4650 
L 5450 5025 
L 5975 4500 
L 3550 4500 
L 3550 2525 
L 4775 2525 
L 5125 2875 
L 5625 2375 
L 3550 2375 
L 3550 25 
L 5075 25 
L 5475 425 
L 6025 -125 
L 1200 -125 
Q 875 -125 600 -200 
L 375 25 
L 1600 25 
L 1600 2725 
z
" transform="scale(0.015625)"/>
        <path id="SimSun-ff09" d="M 2337 875 
Q 1925 350 1437 62 
Q 950 -225 937 -162 
Q 925 -100 1300 175 
Q 1650 425 2037 1012 
Q 2425 1600 2375 2375 
Q 2325 3150 1987 3662 
Q 1650 4175 1300 4475 
Q 925 4775 937 4837 
Q 950 4900 1412 4587 
Q 1875 4275 2325 3662 
Q 2775 3050 2762 2225 
Q 2750 1400 2337 875 
z
" transform="scale(0.015625)"/>
       </defs>
       <use xlink:href="#SimSun-ff08"/>
       <use xlink:href="#SimSun-6295" x="100"/>
       <use xlink:href="#SimSun-5f71" x="200"/>
       <use xlink:href="#SimSun-6821" x="300"/>
       <use xlink:href="#SimSun-6b63" x="400"/>
       <use xlink:href="#SimSun-ff09" x="500"/>
      </g>
     </g>
    </g>
    <g id="xtick_4">
     <g id="line2d_4">
      <g>
       <use xlink:href="#mad611b491e" x="303.796364" y="307.584" style="stroke: #000000; stroke-width: 0.8"/>
      </g>
     </g>
     <g id="text_4">
      <!-- 连续松弛技术 -->
      <g transform="translate(273.796364 322.55275) scale(0.1 -0.1)">
       <use xlink:href="#SimSun-8fde"/>
       <use xlink:href="#SimSun-7eed" x="100"/>
       <use xlink:href="#SimSun-677e" x="200"/>
       <use xlink:href="#SimSun-5f1b" x="300"/>
       <use xlink:href="#SimSun-6280" x="400"/>
       <use xlink:href="#SimSun-672f" x="500"/>
      </g>
      <!-- （Softmax校正） -->
      <g transform="translate(266.296364 333.263687) scale(0.1 -0.1)">
       <defs>
        <path id="SimSun-53" d="M 1500 2150 
Q 825 2450 575 2675 
Q 325 2900 325 3375 
Q 325 3750 637 4087 
Q 950 4425 1525 4425 
Q 1775 4425 2000 4350 
Q 2225 4250 2325 4250 
Q 2400 4250 2462 4287 
Q 2525 4325 2575 4425 
L 2675 3400 
L 2550 3350 
Q 2325 3875 2087 4062 
Q 1850 4250 1475 4250 
Q 1000 4250 825 3987 
Q 650 3725 650 3425 
Q 650 3150 812 2987 
Q 975 2825 1700 2500 
Q 2300 2250 2562 1937 
Q 2825 1625 2825 1200 
Q 2825 750 2512 400 
Q 2200 50 1600 50 
Q 1350 50 1150 150 
Q 925 225 800 225 
Q 725 225 650 175 
Q 575 125 475 50 
L 275 1275 
L 425 1325 
Q 600 700 912 462 
Q 1225 225 1625 225 
Q 2050 225 2262 475 
Q 2475 725 2475 1200 
Q 2475 1450 2237 1687 
Q 2000 1925 1500 2150 
z
" transform="scale(0.015625)"/>
        <path id="SimSun-6f" d="M 2900 1500 
Q 2900 875 2525 462 
Q 2150 50 1600 50 
Q 1025 50 662 475 
Q 300 900 300 1500 
Q 300 2050 662 2500 
Q 1025 2950 1600 2950 
Q 2200 2950 2550 2500 
Q 2900 2050 2900 1500 
z
M 700 1475 
Q 700 825 962 512 
Q 1225 200 1600 200 
Q 2025 200 2262 537 
Q 2500 875 2500 1475 
Q 2500 2125 2237 2462 
Q 1975 2800 1600 2800 
Q 1250 2800 975 2462 
Q 700 2125 700 1475 
z
" transform="scale(0.015625)"/>
        <path id="SimSun-66" d="M 1125 3325 
Q 1125 3850 1450 4112 
Q 1775 4375 2175 4375 
Q 2600 4375 2812 4225 
Q 3025 4075 3025 3875 
Q 3025 3775 2975 3700 
Q 2925 3625 2775 3625 
Q 2675 3625 2612 3675 
Q 2550 3725 2550 3850 
Q 2550 3875 2575 3925 
Q 2575 3975 2575 4000 
Q 2575 4100 2500 4162 
Q 2425 4225 2150 4225 
Q 1850 4225 1662 4037 
Q 1475 3850 1475 3400 
L 1475 2900 
L 2525 2900 
L 2525 2750 
L 1475 2750 
L 1475 450 
Q 1475 350 1537 300 
Q 1600 250 1700 250 
L 2300 250 
L 2300 100 
L 475 100 
L 475 250 
L 900 250 
Q 1025 250 1075 300 
Q 1125 350 1125 450 
L 1125 2750 
L 350 2750 
L 350 2900 
L 1125 2900 
L 1125 3325 
z
" transform="scale(0.015625)"/>
        <path id="SimSun-74" d="M 1500 900 
Q 1500 550 1625 425 
Q 1750 300 2000 300 
Q 2250 300 2400 462 
Q 2550 625 2600 925 
L 2725 875 
Q 2675 525 2462 300 
Q 2250 75 1900 75 
Q 1525 75 1337 300 
Q 1150 525 1150 1000 
L 1150 2750 
L 400 2750 
L 400 2900 
L 600 2900 
Q 900 2900 1087 3087 
Q 1275 3275 1325 3675 
L 1350 3875 
L 1500 3875 
L 1500 2900 
L 2500 2900 
L 2500 2750 
L 1500 2750 
L 1500 900 
z
" transform="scale(0.015625)"/>
        <path id="SimSun-6d" d="M 175 2900 
Q 300 2900 425 2925 
Q 550 2950 625 3000 
L 675 3000 
L 675 2575 
Q 800 2775 950 2862 
Q 1100 2950 1275 2950 
Q 1500 2950 1625 2862 
Q 1750 2775 1775 2575 
Q 1900 2775 2062 2862 
Q 2225 2950 2400 2950 
Q 2700 2950 2812 2775 
Q 2925 2600 2925 2325 
L 2925 425 
Q 2925 325 2975 287 
Q 3025 250 3125 250 
L 3175 250 
L 3175 100 
L 2325 100 
L 2325 250 
L 2375 250 
Q 2475 250 2525 287 
Q 2575 325 2575 425 
L 2575 2300 
Q 2575 2575 2512 2662 
Q 2450 2750 2325 2750 
Q 2150 2750 2012 2625 
Q 1875 2500 1800 2275 
L 1800 425 
Q 1800 325 1850 287 
Q 1900 250 2000 250 
L 2050 250 
L 2050 100 
L 1200 100 
L 1200 250 
L 1250 250 
Q 1350 250 1400 287 
Q 1450 325 1450 425 
L 1450 2300 
Q 1450 2525 1400 2637 
Q 1350 2750 1200 2750 
Q 1025 2750 887 2625 
Q 750 2500 675 2250 
L 675 425 
Q 675 325 725 287 
Q 775 250 875 250 
L 925 250 
L 925 100 
L 75 100 
L 75 250 
L 125 250 
Q 225 250 275 287 
Q 325 325 325 425 
L 325 2600 
Q 325 2675 300 2712 
Q 275 2750 200 2750 
L 100 2750 
L 100 2900 
L 175 2900 
z
" transform="scale(0.015625)"/>
        <path id="SimSun-61" d="M 1225 75 
Q 775 75 525 287 
Q 275 500 275 775 
Q 275 1225 662 1512 
Q 1050 1800 2200 1925 
L 2200 2225 
Q 2200 2475 2087 2637 
Q 1975 2800 1575 2800 
Q 1150 2800 975 2662 
Q 800 2525 850 2375 
Q 875 2325 875 2275 
Q 875 2225 837 2150 
Q 800 2075 650 2075 
Q 550 2075 487 2137 
Q 425 2200 425 2325 
Q 425 2550 750 2750 
Q 1075 2950 1550 2950 
Q 2050 2950 2300 2762 
Q 2550 2575 2550 2225 
L 2550 575 
Q 2550 375 2587 337 
Q 2625 300 2725 300 
Q 2850 300 2900 412 
Q 2950 525 2950 725 
L 3075 725 
Q 3075 375 2950 237 
Q 2825 100 2625 100 
Q 2450 100 2350 175 
Q 2250 250 2200 425 
Q 1950 250 1737 162 
Q 1525 75 1225 75 
z
M 700 850 
Q 700 625 837 437 
Q 975 250 1275 250 
Q 1500 250 1725 337 
Q 1950 425 2200 600 
L 2200 1775 
Q 1350 1675 1025 1437 
Q 700 1200 700 850 
z
" transform="scale(0.015625)"/>
        <path id="SimSun-78" d="M 1675 1825 
L 2125 2500 
Q 2200 2600 2187 2675 
Q 2175 2750 2000 2750 
L 1850 2750 
L 1850 2900 
L 2825 2900 
L 2825 2750 
L 2700 2750 
Q 2650 2750 2575 2737 
Q 2500 2725 2450 2650 
L 1775 1650 
L 2475 500 
Q 2550 375 2662 312 
Q 2775 250 2825 250 
L 2925 250 
L 2925 100 
L 1825 100 
L 1825 250 
L 1975 250 
Q 2125 250 2137 325 
Q 2150 400 2100 500 
L 1575 1350 
L 975 475 
Q 950 350 987 300 
Q 1025 250 1125 250 
L 1200 250 
L 1200 100 
L 225 100 
L 225 250 
L 375 250 
Q 475 250 600 325 
Q 725 400 800 550 
L 1450 1525 
L 800 2575 
Q 775 2625 700 2687 
Q 625 2750 500 2750 
L 375 2750 
L 375 2900 
L 1450 2900 
L 1450 2750 
L 1375 2750 
Q 1250 2750 1225 2675 
Q 1200 2600 1250 2500 
L 1675 1825 
z
M 600 250 
L 600 250 
z
M 825 250 
L 825 250 
z
M 2525 2750 
L 2525 2750 
z
M 2300 2750 
L 2300 2750 
z
M 2250 250 
L 2250 250 
z
M 2625 250 
L 2625 250 
z
M 1100 2750 
L 1100 2750 
z
M 700 2750 
L 700 2750 
z
" transform="scale(0.015625)"/>
       </defs>
       <use xlink:href="#SimSun-ff08"/>
       <use xlink:href="#SimSun-53" x="100"/>
       <use xlink:href="#SimSun-6f" x="150"/>
       <use xlink:href="#SimSun-66" x="200"/>
       <use xlink:href="#SimSun-74" x="250"/>
       <use xlink:href="#SimSun-6d" x="300"/>
       <use xlink:href="#SimSun-61" x="350"/>
       <use xlink:href="#SimSun-78" x="400"/>
       <use xlink:href="#SimSun-6821" x="450"/>
       <use xlink:href="#SimSun-6b63" x="550"/>
       <use xlink:href="#SimSun-ff09" x="650"/>
      </g>
     </g>
    </g>
    <g id="xtick_5">
     <g id="line2d_5">
      <g>
       <use xlink:href="#mad611b491e" x="371.432727" y="307.584" style="stroke: #000000; stroke-width: 0.8"/>
      </g>
     </g>
     <g id="text_5">
      <!-- 奖励溶解算法 -->
      <g transform="translate(341.432727 322.55275) scale(0.1 -0.1)">
       <defs>
        <path id="SimSun-5956" d="M 2950 1425 
Q 3025 1750 3050 2050 
L 3600 1800 
L 3400 1650 
L 3325 1425 
L 5125 1425 
L 5525 1825 
L 6075 1275 
L 3525 1275 
Q 4125 450 4762 150 
Q 5400 -150 6125 -200 
L 6125 -300 
Q 5750 -375 5625 -625 
Q 4825 -375 4300 50 
Q 3775 475 3400 1275 
L 3300 1275 
Q 2850 250 2037 -137 
Q 1225 -525 350 -625 
L 300 -550 
Q 1425 -275 2025 150 
Q 2625 575 2900 1275 
L 1250 1275 
Q 925 1275 650 1200 
L 425 1425 
L 2950 1425 
z
M 850 4775 
Q 1400 4450 1525 4262 
Q 1650 4075 1650 3975 
Q 1650 3875 1550 3737 
Q 1450 3600 1400 3600 
Q 1300 3600 1250 3850 
Q 1125 4250 800 4725 
L 850 4775 
z
M 3425 3875 
Q 4025 3450 3987 3225 
Q 3950 3000 3862 2937 
Q 3775 2875 3750 2875 
Q 3675 2875 3650 3100 
Q 3600 3375 3350 3825 
Q 3025 3525 2575 3225 
L 2525 3325 
Q 3000 3700 3400 4250 
Q 3800 4800 3950 5200 
L 4450 4875 
L 4200 4775 
Q 4050 4575 3875 4350 
L 5225 4350 
L 5450 4575 
L 5850 4175 
L 5600 4075 
Q 5125 3325 4450 2812 
Q 3775 2300 2575 1975 
L 2550 2075 
Q 3675 2475 4325 3075 
Q 4975 3675 5250 4200 
L 3775 4200 
Q 3700 4150 3425 3875 
z
M 2050 1950 
Q 2075 2500 2075 3100 
Q 975 2500 825 2250 
L 500 2700 
Q 975 2775 2075 3250 
L 2075 4350 
Q 2075 4725 2050 5200 
L 2575 4975 
L 2400 4775 
L 2400 3075 
Q 2400 2650 2425 2125 
L 2050 1950 
z
" transform="scale(0.015625)"/>
        <path id="SimSun-52b1" d="M 2250 3475 
Q 2250 3300 2225 2500 
L 3050 2500 
L 3225 2725 
L 3600 2400 
L 3400 2250 
Q 3375 775 3237 287 
Q 3100 -200 2625 -350 
Q 2625 0 2000 150 
L 2000 250 
Q 2300 225 2550 200 
Q 2775 175 2862 312 
Q 2950 450 3000 912 
Q 3050 1375 3075 2350 
L 2225 2350 
Q 2200 1450 1925 750 
Q 1650 50 975 -525 
L 900 -450 
Q 1375 25 1600 637 
Q 1825 1250 1862 1912 
Q 1900 2575 1900 3475 
L 1200 3475 
Q 1225 1800 1012 925 
Q 800 50 300 -600 
L 225 -550 
Q 675 425 762 1250 
Q 850 2075 850 3150 
Q 825 4225 825 4925 
L 1225 4675 
L 3150 4675 
L 3450 4975 
L 3900 4525 
L 1200 4525 
L 1200 3625 
L 3075 3625 
L 3375 3925 
L 3825 3475 
L 2250 3475 
z
M 4375 3400 
Q 4375 4550 4350 5225 
L 4950 5000 
L 4700 4800 
L 4700 3400 
L 5475 3400 
L 5650 3650 
L 6050 3350 
L 5850 3175 
Q 5850 1050 5737 325 
Q 5625 -400 5050 -550 
Q 5050 -225 4300 0 
L 4325 125 
Q 4825 50 5100 37 
Q 5375 25 5450 675 
Q 5525 1325 5525 3250 
L 4700 3250 
Q 4700 2475 4587 1800 
Q 4475 1125 4100 487 
Q 3725 -150 3050 -650 
L 2975 -575 
Q 3525 -50 3812 475 
Q 4100 1000 4237 1675 
Q 4375 2350 4375 3250 
L 4350 3250 
Q 4025 3250 3750 3175 
L 3525 3400 
L 4375 3400 
z
" transform="scale(0.015625)"/>
        <path id="SimSun-6eb6" d="M 3100 1325 
L 3100 50 
L 4725 50 
L 4725 1325 
L 3100 1325 
z
M 3200 3975 
L 3625 3600 
Q 3425 3575 3075 3225 
Q 2725 2875 2150 2500 
L 2100 2575 
Q 2825 3225 3200 3975 
z
M 4225 3750 
L 4275 3825 
Q 4950 3600 5187 3450 
Q 5425 3300 5425 3075 
Q 5425 2975 5375 2825 
Q 5325 2675 5300 2675 
Q 5225 2675 5100 2925 
Q 4875 3275 4225 3750 
z
M 3800 3400 
L 4225 3050 
Q 4100 3025 4000 2900 
Q 4875 1925 6100 1775 
L 6100 1675 
Q 5725 1600 5650 1350 
Q 4650 1775 3925 2825 
Q 3400 2200 2850 1725 
L 3100 1475 
L 4675 1475 
L 4850 1725 
L 5250 1425 
L 5075 1275 
Q 5075 -150 5100 -425 
L 4725 -575 
L 4725 -100 
L 3100 -100 
L 3100 -475 
L 2725 -600 
Q 2750 -275 2750 512 
Q 2750 1300 2750 1650 
Q 2300 1300 1675 1025 
L 1625 1100 
Q 2250 1450 2825 2050 
Q 3400 2650 3800 3400 
z
M 5100 3675 
L 5375 4225 
L 2650 4225 
Q 2675 3775 2562 3637 
Q 2450 3500 2275 3525 
Q 2100 3550 2100 3625 
Q 2100 3700 2200 3825 
Q 2400 4075 2525 4650 
L 2625 4650 
L 2650 4375 
L 3900 4375 
Q 3850 4800 3575 5125 
L 3625 5175 
Q 4050 5000 4150 4887 
Q 4250 4775 4250 4675 
Q 4250 4550 4100 4375 
L 5350 4375 
L 5575 4625 
L 5975 4175 
Q 5650 4175 5175 3625 
L 5100 3675 
z
M 1975 3800 
Q 1425 1425 1387 1112 
Q 1350 800 1337 350 
Q 1325 -100 1350 -275 
Q 1350 -375 1250 -375 
Q 1175 -375 1012 -312 
Q 850 -250 850 -50 
Q 850 125 900 300 
Q 975 550 975 700 
Q 975 850 875 950 
Q 775 1050 400 1150 
L 400 1250 
Q 825 1225 912 1250 
Q 1000 1275 1137 1475 
Q 1275 1675 1875 3825 
L 1975 3800 
z
M 375 3550 
Q 1150 3200 1162 2950 
Q 1175 2700 1087 2600 
Q 1000 2500 975 2500 
Q 900 2500 825 2725 
Q 700 3025 325 3500 
L 375 3550 
z
M 950 4950 
Q 1600 4675 1675 4537 
Q 1750 4400 1750 4325 
Q 1750 4225 1662 4075 
Q 1575 3925 1525 3925 
Q 1450 3925 1400 4100 
Q 1275 4400 900 4900 
L 950 4950 
z
" transform="scale(0.015625)"/>
        <path id="SimSun-89e3" d="M 5700 4550 
Q 5675 3850 5637 3625 
Q 5600 3400 5500 3262 
Q 5400 3125 5075 3025 
Q 5100 3250 4475 3450 
L 4500 3550 
Q 4875 3475 5062 3462 
Q 5250 3450 5300 3625 
Q 5350 3800 5375 4625 
L 4375 4625 
Q 4350 4100 4075 3675 
Q 3800 3250 3075 2900 
L 3000 2975 
Q 3550 3325 3775 3787 
Q 4000 4250 4000 4625 
L 3650 4625 
L 3425 4550 
L 3200 4775 
L 5350 4775 
L 5550 5000 
L 5900 4700 
L 5700 4550 
z
M 4400 -625 
Q 4425 -100 4425 975 
L 3775 975 
Q 3450 975 3175 900 
L 2950 1125 
L 4425 1125 
L 4425 2025 
L 3750 2025 
Q 3400 1525 3100 1275 
L 3050 1325 
Q 3300 1700 3487 2200 
Q 3675 2700 3725 3000 
L 4200 2700 
L 3975 2575 
L 3800 2175 
L 4425 2175 
Q 4425 2825 4400 3175 
L 4950 2900 
L 4750 2750 
L 4750 2175 
L 5200 2175 
L 5475 2450 
L 5875 2025 
L 4750 2025 
L 4750 1125 
L 5450 1125 
L 5750 1425 
L 6175 975 
L 4750 975 
Q 4750 -50 4775 -450 
L 4400 -625 
z
M 1475 5200 
L 1975 4875 
L 1750 4775 
Q 1600 4525 1500 4275 
L 2175 4275 
L 2400 4500 
L 2775 4125 
Q 2550 4025 2437 3912 
Q 2325 3800 1975 3375 
L 2525 3375 
L 2750 3600 
L 3075 3275 
L 2875 3125 
L 2875 -200 
Q 2875 -325 2800 -425 
Q 2725 -525 2500 -625 
Q 2500 -425 2075 -250 
L 2075 -150 
Q 2375 -200 2475 -200 
Q 2575 -200 2575 -75 
L 2575 1300 
L 2000 1300 
Q 2000 400 2025 -50 
L 1675 -250 
Q 1700 250 1700 1300 
L 1125 1300 
Q 1075 150 275 -625 
L 225 -550 
Q 575 -50 687 412 
Q 800 875 812 1137 
Q 825 1400 825 3250 
Q 600 3000 350 2775 
L 300 2850 
Q 850 3550 1112 4162 
Q 1375 4775 1475 5200 
z
M 1125 2275 
L 1125 1450 
L 1700 1450 
L 1700 2275 
L 1125 2275 
z
M 1125 3225 
L 1125 2425 
L 1700 2425 
L 1700 3225 
L 1125 3225 
z
M 2000 3225 
L 2000 2425 
L 2575 2425 
L 2575 3225 
L 2000 3225 
z
M 2000 2275 
L 2000 1450 
L 2575 1450 
L 2575 2275 
L 2000 2275 
z
M 1450 4125 
Q 1275 3825 1050 3475 
L 1175 3375 
L 1850 3375 
L 2200 4125 
L 1450 4125 
z
" transform="scale(0.015625)"/>
       </defs>
       <use xlink:href="#SimSun-5956"/>
       <use xlink:href="#SimSun-52b1" x="100"/>
       <use xlink:href="#SimSun-6eb6" x="200"/>
       <use xlink:href="#SimSun-89e3" x="300"/>
       <use xlink:href="#SimSun-7b97" x="400"/>
       <use xlink:href="#SimSun-6cd5" x="500"/>
      </g>
     </g>
    </g>
   </g>
   <g id="matplotlib.axis_2">
    <g id="ytick_1">
     <g id="line2d_6">
      <defs>
       <path id="m29d685552c" d="M 0 0 
L -3.5 0 
" style="stroke: #000000; stroke-width: 0.8"/>
      </defs>
      <g>
       <use xlink:href="#m29d685552c" x="57.6" y="307.584" style="stroke: #000000; stroke-width: 0.8"/>
      </g>
     </g>
     <g id="text_6">
      <!-- 0.000 -->
      <g transform="translate(21.971875 311.383219) scale(0.1 -0.1)">
       <defs>
        <path id="DejaVuSans-30" d="M 2034 4250 
Q 1547 4250 1301 3770 
Q 1056 3291 1056 2328 
Q 1056 1369 1301 889 
Q 1547 409 2034 409 
Q 2525 409 2770 889 
Q 3016 1369 3016 2328 
Q 3016 3291 2770 3770 
Q 2525 4250 2034 4250 
z
M 2034 4750 
Q 2819 4750 3233 4129 
Q 3647 3509 3647 2328 
Q 3647 1150 3233 529 
Q 2819 -91 2034 -91 
Q 1250 -91 836 529 
Q 422 1150 422 2328 
Q 422 3509 836 4129 
Q 1250 4750 2034 4750 
z
" transform="scale(0.015625)"/>
        <path id="DejaVuSans-2e" d="M 684 794 
L 1344 794 
L 1344 0 
L 684 0 
L 684 794 
z
" transform="scale(0.015625)"/>
       </defs>
       <use xlink:href="#DejaVuSans-30"/>
       <use xlink:href="#DejaVuSans-2e" x="63.623047"/>
       <use xlink:href="#DejaVuSans-30" x="95.410156"/>
       <use xlink:href="#DejaVuSans-30" x="159.033203"/>
       <use xlink:href="#DejaVuSans-30" x="222.65625"/>
      </g>
     </g>
    </g>
    <g id="ytick_2">
     <g id="line2d_7">
      <g>
       <use xlink:href="#m29d685552c" x="57.6" y="261.447865" style="stroke: #000000; stroke-width: 0.8"/>
      </g>
     </g>
     <g id="text_7">
      <!-- 0.005 -->
      <g transform="translate(21.971875 265.247084) scale(0.1 -0.1)">
       <defs>
        <path id="DejaVuSans-35" d="M 691 4666 
L 3169 4666 
L 3169 4134 
L 1269 4134 
L 1269 2991 
Q 1406 3038 1543 3061 
Q 1681 3084 1819 3084 
Q 2600 3084 3056 2656 
Q 3513 2228 3513 1497 
Q 3513 744 3044 326 
Q 2575 -91 1722 -91 
Q 1428 -91 1123 -41 
Q 819 9 494 109 
L 494 744 
Q 775 591 1075 516 
Q 1375 441 1709 441 
Q 2250 441 2565 725 
Q 2881 1009 2881 1497 
Q 2881 1984 2565 2268 
Q 2250 2553 1709 2553 
Q 1456 2553 1204 2497 
Q 953 2441 691 2322 
L 691 4666 
z
" transform="scale(0.015625)"/>
       </defs>
       <use xlink:href="#DejaVuSans-30"/>
       <use xlink:href="#DejaVuSans-2e" x="63.623047"/>
       <use xlink:href="#DejaVuSans-30" x="95.410156"/>
       <use xlink:href="#DejaVuSans-30" x="159.033203"/>
       <use xlink:href="#DejaVuSans-35" x="222.65625"/>
      </g>
     </g>
    </g>
    <g id="ytick_3">
     <g id="line2d_8">
      <g>
       <use xlink:href="#m29d685552c" x="57.6" y="215.31173" style="stroke: #000000; stroke-width: 0.8"/>
      </g>
     </g>
     <g id="text_8">
      <!-- 0.010 -->
      <g transform="translate(21.971875 219.110949) scale(0.1 -0.1)">
       <defs>
        <path id="DejaVuSans-31" d="M 794 531 
L 1825 531 
L 1825 4091 
L 703 3866 
L 703 4441 
L 1819 4666 
L 2450 4666 
L 2450 531 
L 3481 531 
L 3481 0 
L 794 0 
L 794 531 
z
" transform="scale(0.015625)"/>
       </defs>
       <use xlink:href="#DejaVuSans-30"/>
       <use xlink:href="#DejaVuSans-2e" x="63.623047"/>
       <use xlink:href="#DejaVuSans-30" x="95.410156"/>
       <use xlink:href="#DejaVuSans-31" x="159.033203"/>
       <use xlink:href="#DejaVuSans-30" x="222.65625"/>
      </g>
     </g>
    </g>
    <g id="ytick_4">
     <g id="line2d_9">
      <g>
       <use xlink:href="#m29d685552c" x="57.6" y="169.175595" style="stroke: #000000; stroke-width: 0.8"/>
      </g>
     </g>
     <g id="text_9">
      <!-- 0.015 -->
      <g transform="translate(21.971875 172.974813) scale(0.1 -0.1)">
       <use xlink:href="#DejaVuSans-30"/>
       <use xlink:href="#DejaVuSans-2e" x="63.623047"/>
       <use xlink:href="#DejaVuSans-30" x="95.410156"/>
       <use xlink:href="#DejaVuSans-31" x="159.033203"/>
       <use xlink:href="#DejaVuSans-35" x="222.65625"/>
      </g>
     </g>
    </g>
    <g id="ytick_5">
     <g id="line2d_10">
      <g>
       <use xlink:href="#m29d685552c" x="57.6" y="123.03946" style="stroke: #000000; stroke-width: 0.8"/>
      </g>
     </g>
     <g id="text_10">
      <!-- 0.020 -->
      <g transform="translate(21.971875 126.838678) scale(0.1 -0.1)">
       <defs>
        <path id="DejaVuSans-32" d="M 1228 531 
L 3431 531 
L 3431 0 
L 469 0 
L 469 531 
Q 828 903 1448 1529 
Q 2069 2156 2228 2338 
Q 2531 2678 2651 2914 
Q 2772 3150 2772 3378 
Q 2772 3750 2511 3984 
Q 2250 4219 1831 4219 
Q 1534 4219 1204 4116 
Q 875 4013 500 3803 
L 500 4441 
Q 881 4594 1212 4672 
Q 1544 4750 1819 4750 
Q 2544 4750 2975 4387 
Q 3406 4025 3406 3419 
Q 3406 3131 3298 2873 
Q 3191 2616 2906 2266 
Q 2828 2175 2409 1742 
Q 1991 1309 1228 531 
z
" transform="scale(0.015625)"/>
       </defs>
       <use xlink:href="#DejaVuSans-30"/>
       <use xlink:href="#DejaVuSans-2e" x="63.623047"/>
       <use xlink:href="#DejaVuSans-30" x="95.410156"/>
       <use xlink:href="#DejaVuSans-32" x="159.033203"/>
       <use xlink:href="#DejaVuSans-30" x="222.65625"/>
      </g>
     </g>
    </g>
    <g id="ytick_6">
     <g id="line2d_11">
      <g>
       <use xlink:href="#m29d685552c" x="57.6" y="76.903325" style="stroke: #000000; stroke-width: 0.8"/>
      </g>
     </g>
     <g id="text_11">
      <!-- 0.025 -->
      <g transform="translate(21.971875 80.702543) scale(0.1 -0.1)">
       <use xlink:href="#DejaVuSans-30"/>
       <use xlink:href="#DejaVuSans-2e" x="63.623047"/>
       <use xlink:href="#DejaVuSans-30" x="95.410156"/>
       <use xlink:href="#DejaVuSans-32" x="159.033203"/>
       <use xlink:href="#DejaVuSans-35" x="222.65625"/>
      </g>
     </g>
    </g>
   </g>
   <g id="patch_8">
    <path d="M 57.6 307.584 
L 57.6 41.472 
" style="fill: none; stroke: #000000; stroke-width: 0.8; stroke-linejoin: miter; stroke-linecap: square"/>
   </g>
   <g id="patch_9">
    <path d="M 414.72 307.584 
L 414.72 41.472 
" style="fill: none"/>
   </g>
   <g id="patch_10">
    <path d="M 57.6 307.584 
L 414.72 307.584 
" style="fill: none; stroke: #000000; stroke-width: 0.8; stroke-linejoin: miter; stroke-linecap: square"/>
   </g>
   <g id="patch_11">
    <path d="M 57.6 41.472 
L 414.72 41.472 
" style="fill: none"/>
   </g>
   <g id="patch_12">
    <path d="M 57.6 40.091716 
Q 57.6 39.224978 57.6 39.476274 
" style="fill: none; stroke: #000000; stroke-linecap: round"/>
    <path d="M 55.6 44.091716 
L 57.6 40.091716 
L 59.6 44.091716 
" style="fill: none; stroke: #000000; stroke-linecap: round"/>
   </g>
   <g id="text_12">
    <!-- 收益率 -->
    <g transform="translate(42.6 30.448563) scale(0.1 -0.1)">
     <defs>
      <path id="SimSun-6536" d="M 3325 3600 
Q 3575 2100 4200 1200 
Q 4600 1950 4850 3600 
L 3325 3600 
z
M 3400 5275 
L 4025 4975 
L 3775 4850 
Q 3575 4375 3325 3750 
L 5250 3750 
L 5575 4075 
L 6050 3600 
L 5225 3600 
Q 4975 2000 4425 900 
Q 5300 -25 6150 -75 
L 6150 -175 
Q 5750 -200 5575 -525 
Q 4750 -50 4200 650 
Q 3350 -175 2300 -600 
L 2250 -525 
Q 3225 -25 4000 900 
Q 3325 2100 3225 3550 
Q 2875 2725 2425 2100 
L 2350 2150 
Q 3050 3500 3400 5275 
z
M 575 1575 
L 575 3100 
Q 575 3600 550 4125 
L 1125 3850 
L 900 3675 
L 900 1425 
L 1750 1725 
Q 1750 4350 1725 5250 
L 2300 4975 
L 2075 4775 
L 2075 -450 
L 1725 -650 
Q 1750 375 1750 1600 
Q 975 1175 750 825 
L 475 1200 
Q 600 1325 575 1575 
z
" transform="scale(0.015625)"/>
      <path id="SimSun-76ca" d="M 3900 1725 
L 3900 -75 
L 4725 -75 
L 4725 1725 
L 3900 1725 
z
M 1275 2100 
L 1625 1875 
L 4675 1875 
L 4875 2125 
L 5250 1800 
L 5050 1650 
L 5050 -75 
L 5300 -75 
L 5650 275 
L 6100 -225 
L 1125 -225 
Q 800 -225 525 -300 
L 300 -75 
L 1300 -75 
Q 1300 1475 1275 2100 
z
M 1625 1725 
L 1625 -75 
L 2450 -75 
L 2450 1725 
L 1625 1725 
z
M 2775 1725 
L 2775 -75 
L 3575 -75 
L 3575 1725 
L 2775 1725 
z
M 2475 3550 
L 2900 3150 
Q 2575 3025 2050 2675 
Q 1525 2300 725 2000 
L 675 2075 
Q 1875 2750 2475 3550 
z
M 3700 3450 
Q 4425 3200 4987 2950 
Q 5550 2700 5500 2362 
Q 5450 2025 5350 2025 
Q 5275 2025 5200 2125 
Q 4975 2375 4662 2650 
Q 4350 2925 3650 3375 
L 3700 3450 
z
M 1725 5000 
L 1775 5075 
Q 2375 4800 2587 4587 
Q 2800 4375 2800 4225 
Q 2800 4050 2600 3825 
L 3625 3825 
Q 4175 4800 4275 5225 
L 4825 4875 
Q 4475 4725 3775 3825 
L 4900 3825 
L 5275 4200 
L 5775 3675 
L 1550 3675 
Q 1225 3675 950 3600 
L 725 3825 
L 2425 3825 
Q 2325 4375 1725 5000 
z
" transform="scale(0.015625)"/>
     </defs>
     <use xlink:href="#SimSun-6536"/>
     <use xlink:href="#SimSun-76ca" x="100"/>
     <use xlink:href="#SimSun-7387" x="200"/>
    </g>
    <!--  -->
    <g transform="translate(57.6 40.31575) scale(0.1 -0.1)"/>
    <!--  -->
    <g transform="translate(57.6 50.182938) scale(0.1 -0.1)"/>
   </g>
  </g>
 </g>
 <defs>
  <clipPath id="p26690816c7">
   <rect x="57.6" y="41.472" width="357.12" height="266.112"/>
  </clipPath>
 </defs>
</svg>
